<svg width="189" height="180" viewBox="0 0 189 180" fill="none" xmlns="http://www.w3.org/2000/svg">
<path d="M41.5351 173.955C37.6399 174.174 33.2334 174.591 31.1482 176.37C30.6565 176.787 30.3417 177.277 30.44 177.768C30.7745 179.22 34.2958 179.637 37.0301 179.692C75.3314 180.49 113.692 179.13 152.012 179.401C163.383 179.474 175.167 179.674 185.652 177.314C187.54 176.896 189.704 175.916 188.78 174.936C188.15 174.282 186.537 174.174 185.159 174.137C165.645 173.611 146.13 173.212 126.596 172.957C116.741 172.83 106.866 172.74 97.0099 172.667C89.1412 172.612 81.7641 173.32 73.8757 173.23C63.0758 173.121 52.276 173.375 41.5351 173.955Z" fill="url(#paint0_linear_111_1673)"/>
<path d="M41.5351 173.955C37.6399 174.174 33.2334 174.591 31.1482 176.37C30.6565 176.787 30.3417 177.277 30.44 177.768C30.7745 179.22 34.2958 179.637 37.0301 179.692C75.3314 180.49 113.692 179.13 152.012 179.401C163.383 179.474 175.167 179.674 185.652 177.314C187.54 176.896 189.704 175.916 188.78 174.936C188.15 174.282 186.537 174.174 185.159 174.137C165.645 173.611 146.13 173.212 126.596 172.957C116.741 172.83 106.866 172.74 97.0099 172.667C89.1412 172.612 81.7641 173.32 73.8757 173.23C63.0758 173.121 52.276 173.375 41.5351 173.955Z" fill="url(#paint1_linear_111_1673)"/>
<path d="M78.4636 164.329C76.4177 164.982 74.2931 164.329 72.503 162.804C78.2079 147.665 76.1816 131.436 82.9291 116.496C83.5389 115.171 84.2275 113.827 85.4472 112.72C87.8078 110.596 94.6144 109.706 93.7094 113.446C92.7848 117.312 90.4635 121.251 89.0864 125.064C86.116 133.323 83.5783 141.656 81.5127 150.042C80.3521 154.78 79.3292 159.554 78.4636 164.329Z" fill="#E2CBB7"/>
<path d="M106.037 165.801C104.463 166.001 102.85 166.036 101.257 165.928C101.1 149.263 99.9586 132.598 97.8145 116.006C97.6177 114.536 97.4407 113.029 97.9915 111.613C99.1914 108.582 105.054 107.238 107.296 110.415C109.224 113.139 107.946 118.112 107.985 121.035C108.103 130.565 107.867 140.096 107.316 149.608C107.001 155.017 106.588 160.409 106.037 165.801Z" fill="#E2CBB7"/>
<path d="M90.9949 40.6378C89.5786 38.877 87.4933 37.6062 86.1753 35.7727C85.0342 34.1934 84.5622 32.1602 85.2508 30.3811C85.9393 28.6022 87.9457 27.2407 89.9719 27.4767L87.7687 27.3677C85.6638 27.9123 83.3031 28.6385 82.4376 30.5082C81.808 31.8697 82.2213 33.431 82.536 34.8651C83.0082 36.9345 83.2834 39.1128 82.6933 41.1642C82.2409 42.7254 81.3162 44.1413 80.726 45.6662C80.136 47.1911 79.9195 48.9882 80.8638 50.3679C81.6704 51.5297 83.1851 52.165 84.6802 52.2377C86.1752 52.3103 87.6507 51.8564 89.008 51.2755C90.1884 50.7673 91.349 50.0955 92.0768 49.0971C92.8244 48.0443 93.0407 46.7372 92.9424 45.4846C92.8047 43.7238 92.1162 42.0356 90.9949 40.6378Z" fill="#534741"/>
<path d="M124.808 11.6094C129.51 27.4571 127.76 27.3482 124.553 36.4611C123.943 38.2038 122.487 41.1084 121.542 42.7059C119.911 45.4288 117.392 47.5527 114.894 49.6404C114.382 50.0761 113.831 50.5117 113.182 50.7477C112.592 50.9474 111.963 50.9474 111.333 50.8566C109.464 50.5661 107.891 49.2591 107.222 47.6435C106.415 45.7011 107.655 44.9568 109.248 43.8676C112.395 41.7074 113.871 39.7105 116.428 36.8786C117.865 35.2993 118.73 33.3387 119.516 31.3963C121.524 26.495 122.468 26.4769 122.389 19.1429C122.369 17.8722 121.464 13.8785 120.835 12.7349C120.088 11.4097 119.556 10.266 119.025 9.15867C118.632 8.75929 118.435 7.92425 118.298 7.57934C118.022 6.88951 117.549 6.25415 116.959 5.74586C116.625 5.47356 116.232 5.21943 116.153 4.82005C116.133 4.67483 116.133 4.54775 116.094 4.40253C116.054 4.2573 115.956 4.13023 115.877 4.02131C115.681 3.76717 115.445 3.54932 115.189 3.34963C115.012 3.20441 114.815 3.05918 114.717 2.8595C114.54 2.46013 114.461 1.37094 114.776 1.02603C114.992 0.771881 116.389 -0.0813229 116.9 0.00944321C117.254 0.0639029 117.628 -0.0631689 117.982 0.0457505C118.415 0.172823 118.828 0.354354 119.202 0.590346C119.615 0.862644 119.969 1.18941 120.304 1.51616C121.445 2.62352 121.524 4.85636 122.468 6.12708L124.808 11.6094Z" fill="#E2CBB7"/>
<path d="M99.4905 43.1047C102.52 42.8687 105.963 42.1789 108.323 43.8671C110.054 45.1015 110.527 47.1892 110.822 49.1134C113.241 64.6162 111.451 80.3732 112.494 95.985C112.808 100.814 113.418 105.624 114.264 110.399C114.52 111.869 114.835 113.357 115.641 114.665C116.113 115.409 116.723 116.081 117.057 116.88C118.041 119.221 116.113 121.89 113.536 122.997C110.959 124.105 107.969 124.049 105.117 123.977C96.1659 123.741 87.2348 123.523 78.284 123.287C76.0218 123.233 73.5432 123.088 71.9498 121.69C70.3563 120.292 70.1989 118.114 70.2972 116.135C70.7497 106.26 74.7234 96.7837 77.3399 87.1625C79.9366 77.6321 81.2349 67.8838 83.7529 58.3352C84.9135 53.9421 86.0151 48.6596 88.5724 44.684C90.9135 41.0896 95.4971 43.3951 99.4905 43.1047Z" fill="#D9924E"/>
<path d="M69.1929 54.8109C67.5404 56.0273 65.3963 57.2979 63.4488 56.5355C62.0914 56.0091 61.3832 54.6658 60.7537 53.4313C57.9209 47.7312 54.9307 42.1037 51.9406 36.4762C50.7012 37.1115 49.3045 37.9284 49.1472 39.2355C49.0685 39.9254 49.3833 40.6151 49.6981 41.2505C53.2587 48.6389 57.134 55.9002 61.3241 63.0162C61.7175 63.6879 62.17 64.4141 62.8979 64.777C63.7831 65.2128 64.8651 65.0494 65.8487 64.8315C71.6519 63.5426 77.0617 61.092 82.2354 58.369C83.6125 57.6428 85.0682 56.8259 85.6781 55.4826C86.1895 54.4116 86.0715 53.1954 85.9535 52.0335C85.6191 48.9475 83.8681 43.919 79.7173 46.8236C76.0977 49.3106 72.7339 52.215 69.1929 54.8109Z" fill="#E2CBB7"/>
<path d="M51.0768 33.1754C50.6638 32.885 50.1129 32.885 49.6211 32.7216C48.4212 32.3041 47.8703 30.9426 46.7687 30.3254C45.7851 29.7627 44.3884 29.9441 43.5819 30.7247C42.795 31.4871 42.5787 32.6308 42.4212 33.6837C42.3622 34.065 42.3032 34.4461 42.4015 34.8092C42.5197 35.2267 42.8344 35.5534 43.1294 35.8439C44.6245 37.2962 46.3753 38.4944 48.3031 39.3839C48.6966 39.5653 49.0901 39.7288 49.5228 39.7468C51.1949 39.8559 52.1785 38.3128 52.1785 37.0784C52.1982 36.3159 51.7653 33.6474 51.0768 33.1754Z" fill="#E2CBB7"/>
<path d="M107.556 24.4071C107.241 23.1727 106.828 21.9564 106.257 20.8309C104.231 16.8373 98.0935 11.6272 93.0183 14.441C91.8379 15.0945 90.9331 16.0929 90.0872 17.0913C89.2215 18.1261 88.3953 19.1972 87.7461 20.3589C86.5264 22.5555 85.9167 25.1877 86.2511 27.6565C86.5659 29.9439 87.7855 32.1948 88.9461 34.228C90.4609 36.9146 92.4675 39.6376 95.556 40.6724C99.6674 42.052 104.448 39.7103 106.572 36.1886C108.638 32.6668 108.559 28.3282 107.556 24.4071Z" fill="#E2CBB7"/>
<path d="M94.4374 18.5067C93.375 20.1405 91.8799 21.4839 90.3259 22.7364C89.1258 23.7167 87.8275 24.7333 87.3554 26.1493C86.9619 27.3111 87.1981 28.5637 86.8832 29.7436C85.9587 29.8888 85.2506 29.0357 84.7587 28.2913C84.0309 27.1477 83.2833 25.9678 83.008 24.6607C82.8112 23.6986 82.8898 22.7001 82.9686 21.738C83.1259 19.8864 83.362 17.9985 84.2669 16.3646C85.2309 14.6401 86.9227 13.2787 88.9292 12.6433C90.5816 12.1168 93.6897 11.8627 95.1454 13.0607C96.7783 14.4042 95.3423 17.1634 94.4374 18.5067Z" fill="#534741"/>
<path d="M125.774 42.5227C124.967 41.2519 123.806 40.199 122.842 39.0191C120.166 35.806 119.006 31.776 117.137 28.109C116.35 26.5841 115.347 25.023 113.734 24.206C112.79 23.7341 111.019 23.5707 109.878 24.1153C109.898 23.7704 109.937 23.4073 109.937 23.0625C110.016 19.4681 108.934 15.7103 106.18 13.1689C103.426 10.6275 98.803 9.66535 95.4982 11.5533C93.2556 12.8422 92.1342 16.3639 95.2227 17.4713C96.2457 17.8343 97.5441 17.6709 98.626 17.9613C100.259 18.3971 101.833 19.105 103.151 20.1035C105.314 21.719 106.79 24.2787 106.515 26.8564C106.81 26.4571 107.026 26.0214 107.164 25.5675C108.01 26.0759 107.596 27.2559 107.321 28.1454C106.79 29.9243 107.203 31.8122 107.616 33.6094C108.305 31.5037 108.973 29.3616 109.426 27.2195C110.193 28.3632 111.491 29.4887 112.062 30.2329C115.347 34.4081 116.075 39.8905 115.741 45.046C115.642 46.5708 115.465 48.1683 116.134 49.5662C117.019 51.4359 119.419 52.5432 121.622 52.2528C123.825 51.9624 125.714 50.3831 126.462 48.4587C127.21 46.5164 126.875 44.3017 125.774 42.5227Z" fill="#534741"/>
<path d="M106.631 162.754C106.965 162.791 107.319 162.845 107.595 163.027C107.949 163.263 108.086 163.663 108.165 164.062C108.539 165.732 108.204 167.565 109.05 169.072C109.483 169.852 110.211 170.488 111.076 170.833C111.981 171.196 113.004 171.25 113.909 171.632C114.814 171.995 115.621 172.902 115.326 173.773C114.972 174.808 113.457 174.972 112.276 174.918C110.152 174.827 108.008 174.754 105.883 174.663C104.368 174.609 102.696 174.481 101.614 173.502C100.729 172.684 100.473 171.469 100.316 170.306C100.08 168.6 99.2143 164.697 100.375 163.191C101.437 161.793 105.116 162.592 106.631 162.754Z" fill="#ACB18F"/>
<path d="M77.3028 160.901C77.7356 161.028 78.2078 161.191 78.4832 161.518C78.8176 161.899 78.8176 162.426 78.8176 162.916C78.8176 164.859 78.7979 166.801 78.7585 168.724C78.7389 169.579 78.7192 170.45 78.3847 171.248C77.6766 172.955 75.5128 173.99 73.5652 173.626C72.6013 173.444 71.7159 172.991 70.8701 172.519C70.5357 172.338 70.2013 172.138 69.9652 171.866C69.6504 171.484 69.5914 170.976 69.5914 170.504C69.5717 169.161 70.0046 167.854 70.4374 166.565C71.0866 164.604 71.5193 162.389 72.4439 160.52C73.2504 158.868 75.8668 160.447 77.3028 160.901Z" fill="#ACB18F"/>
<path d="M105.653 15.7512C104.945 15.1885 104.197 15.9509 103.765 16.4591C103.037 17.3306 102.25 18.2745 101.679 19.2366C101.483 19.5634 101.817 19.9083 102.151 19.8901C102.289 20.0172 102.407 20.1261 102.565 20.2169C102.761 20.3076 103.017 20.3258 103.194 20.2169C103.647 19.9446 104.02 19.4908 104.374 19.1459C104.847 18.6921 105.319 18.2382 105.791 17.7844C106.558 17.0946 106.538 16.441 105.653 15.7512Z" fill="#DD7A8F"/>
<path d="M108.675 18.7041C108.479 18.2684 107.967 17.9417 107.456 18.1595C106.826 18.4317 106.256 19.1216 105.784 19.5754C105.252 20.12 104.761 20.6827 104.328 21.3C104.151 21.5541 104.367 21.8445 104.643 21.9171C104.662 22.1169 104.8 22.3165 105.095 22.4618C105.705 22.7885 106.256 22.262 106.669 21.8991C107.239 21.4271 107.751 20.8825 108.223 20.3197C108.616 19.8659 108.951 19.3032 108.675 18.7041Z" fill="#DD7A8F"/>
<path d="M134.039 78.882C134.748 79.2813 135.555 79.6626 136.381 79.5173C137.541 79.2995 138.151 78.1378 138.584 77.1212C140.158 73.3815 141.711 69.6239 143.286 65.8844C144.722 62.4715 146.177 58.9135 146 55.2465C145.922 53.5402 144.919 51.4343 143.089 51.5796C142.007 51.6522 141.22 52.5235 140.61 53.3404C138.21 56.5354 138.053 59.8393 137.069 63.6334C136.675 65.1764 135.791 68.8433 134.846 70.1503C133.882 71.4573 132.191 70.3863 130.597 69.8054C129.279 69.3152 126.919 67.028 125.994 66.0295C123.967 63.833 123.476 63.4336 121.961 62.29C120.978 61.5457 120.82 61.6364 119.541 61.6001C112.833 61.4368 121.273 69.2972 122.67 70.6041C126.033 73.8173 129.869 76.6129 134.039 78.882Z" fill="#B79A7D"/>
<path d="M163.608 85.4708C155.622 85.7068 147.261 83.8371 139.432 85.8702C139.392 113.681 141.064 144.523 143.681 172.153C146.179 172.153 148.677 172.153 151.176 172.153C153.222 157.14 152.632 142.926 153.123 127.877C154.028 134.883 155.779 138.895 157.588 147.61C158.435 151.639 159.418 155.597 160.145 159.663C160.52 161.732 160.914 163.821 161.345 165.872C161.72 167.632 162.408 169.484 162.35 171.335C164.789 171.717 167.307 170.754 169.687 170.21C169.687 166.489 169.687 162.749 169.687 159.028C169.687 154.145 169.432 149.442 168.959 144.614C168.526 140.075 167.837 135.429 167.837 130.854C167.582 127.84 167.326 124.827 167.13 121.796C166.716 114.97 168.782 105.494 168.467 98.6682C168.31 95.2736 165.969 94.5111 165.596 91.1346C165.418 89.5009 165.221 87.8489 164.946 86.2332C164.847 85.6524 164.887 84.7991 164.336 84.7447C164.218 84.6902 163.963 85.4526 163.608 85.4708Z" fill="#B79A7D"/>
<path d="M152.289 44.0878C153.765 43.0349 155.004 41.4374 155.831 39.3498C157.345 35.4832 158.407 31.3624 157.817 27.2779C157.109 22.5944 153.292 17.094 147.647 16.7127C141.017 16.2771 139.07 23.7925 137.929 28.8392C137.024 32.851 137.279 37.244 139.581 40.7295C143.004 45.9575 148.414 46.8653 152.289 44.0878Z" fill="#B79A7D"/>
<path d="M143.778 21.4819C144.073 22.081 144.86 22.4259 145.549 22.2444C146.237 22.081 146.729 21.4093 146.65 20.7558C147.437 22.2626 150.015 22.5712 151.195 21.3186C150.683 21.1915 150.879 22.0628 151.352 22.2806C152.335 22.6982 153.515 22.7164 154.499 22.2988C153.771 22.6801 154.244 23.6966 154.775 24.2957C155.188 24.7496 155.581 25.2216 155.994 25.6753C155.267 26.7282 156.585 28.3439 157.883 27.999C156.978 28.3983 156.722 29.6509 157.391 30.3225C156.781 30.9761 156.348 31.7749 156.191 32.628C156.742 32.6643 156.958 33.4993 156.467 33.7535C156.9 34.044 157.49 34.0984 157.981 33.8988C157.687 33.9533 157.804 34.4433 158.1 34.4797C158.394 34.516 158.65 34.28 158.807 34.0258C159.26 33.336 159.398 32.4828 159.142 31.7022C160.067 31.3029 160.303 30.2136 160.42 29.2697C160.48 28.7977 160.538 28.3257 160.597 27.8537C160.657 27.3999 160.716 26.9279 160.519 26.5104C160.323 26.0929 159.811 25.748 159.338 25.9113C160.46 25.748 161.07 24.2957 160.361 23.4788C161.936 22.9524 162.073 20.5017 160.558 19.83C161.03 18.9042 160.814 17.7243 160.007 17.0163C159.221 16.3083 157.922 16.1086 156.938 16.5624C157.095 16.7621 157.49 16.6168 157.568 16.3808C157.647 16.1449 157.51 15.8908 157.351 15.6911C156.309 14.3477 154.165 13.8395 152.532 14.5475C151.608 13.3311 149.62 12.9136 148.224 13.658C148.519 13.8031 148.913 13.658 149.03 13.3675C148.224 12.6776 147.24 12.0423 146.119 12.0605C145.017 12.0785 143.916 13.0951 144.29 14.0573C142.578 13.2404 140.198 14.856 140.532 16.5988C139.411 16.5261 138.191 16.7439 137.424 17.5064C136.657 18.2507 136.539 19.6303 137.404 20.2838C136.125 20.2475 134.886 21.1733 134.651 22.3352C134.415 23.497 135.201 24.7676 136.421 25.1671C135.358 25.8569 134.592 26.9279 134.296 28.0897C134.651 28.5435 135.103 28.9066 135.634 29.1608C135.319 29.3059 135.162 29.669 135.279 29.9777C135.968 30.4496 136.755 30.9579 137.621 30.849C138.487 30.7583 139.155 29.6872 138.525 29.1426C139.824 28.5799 140.513 27.0368 140.021 25.8024C140.335 25.7298 140.65 25.6572 140.984 25.5845C141.398 24.9674 141.654 23.9508 140.925 23.733C141.614 24.2412 142.696 24.2049 143.365 23.6785C144.053 23.1702 144.211 22.1717 143.778 21.4819Z" fill="#333333"/>
<path d="M162.824 10.827C163.669 11.1357 163.512 12.4245 162.725 12.8421C161.938 13.2596 160.935 13.0055 160.109 12.6424C160.542 12.7331 160.778 13.296 160.502 13.6227C159.263 13.9313 157.866 13.6771 156.823 12.9691C157.119 12.8602 157.414 13.2596 157.296 13.5319C157.177 13.8042 156.823 13.9313 156.489 13.9857C155.447 14.1309 154.346 13.7135 153.736 12.9147C154.503 12.6969 155.033 13.8587 154.503 14.4215C153.971 14.9842 153.007 14.9479 152.24 14.6937C152.024 14.6211 151.788 14.5122 151.709 14.3125C152.181 14.2944 152.437 14.8934 152.181 15.2564C151.926 15.6195 151.355 15.6921 150.941 15.5288C150.51 15.3654 150.194 15.0204 149.958 14.6575C150.077 14.8753 150.096 15.1475 149.998 15.3654C149.132 15.3291 148.365 14.6937 148.227 13.9131C148.09 13.8042 148.325 13.55 148.464 13.6589C147.538 13.2233 146.752 12.4972 146.279 11.644C145.552 12.0434 144.469 11.7892 144.056 11.0994C143.466 11.1901 142.838 11.0268 142.405 10.6455C142.188 11.0086 141.656 11.1357 141.243 11.0086C140.83 10.8816 140.496 10.5366 140.299 10.1736C140.202 9.99203 140.142 9.79234 140.24 9.61081C140.359 9.44743 140.712 9.46558 140.712 9.66526C139.67 9.62896 138.765 8.77576 138.706 7.83179C139.02 7.83179 139.336 7.95887 139.532 8.19486C138.804 8.1404 138.253 7.35981 138.509 6.72445C138.746 6.08909 139.709 5.79864 140.299 6.17985C139.866 5.76233 139.67 5.12697 139.827 4.56421C140.083 4.50975 140.359 4.43714 140.615 4.38268C139.847 4.11038 139.827 2.93042 140.555 2.58552C141.263 2.22245 142.286 2.76705 142.365 3.52949C141.676 3.22088 141.676 2.14983 142.345 1.82308C143.014 1.49632 143.978 2.09538 143.879 2.7852C143.919 2.29507 144.411 1.87754 144.942 1.91385C145.473 1.93201 145.925 2.40398 145.906 2.89412C146.024 2.33136 146.378 1.73231 147.008 1.6234C147.617 1.51447 148.267 2.27691 147.814 2.69443C147.558 1.93201 148.561 1.22402 149.408 1.3511C150.254 1.46001 150.923 2.07723 151.513 2.65812C151.591 2.18614 152.083 1.82308 152.594 1.84124C153.106 1.87754 153.558 2.29507 153.558 2.76705C153.184 2.42213 153.341 1.75047 153.834 1.56894C154.326 1.38739 154.936 1.80493 154.916 2.27691C155.27 1.71416 156.017 1.4237 156.686 1.56894C157.355 1.71416 157.886 2.29507 157.945 2.93042C157.985 2.5129 158.417 2.22245 158.87 2.14983C159.302 2.09537 159.755 2.20429 160.188 2.31322C160.699 2.45844 161.25 2.62182 161.525 3.03935C161.801 3.45687 161.545 4.16485 161.014 4.12854C161.722 4.11038 162.529 4.14669 162.981 4.63683C163.434 5.14512 162.902 6.16169 162.273 5.88941C163.119 5.81679 164.064 6.16169 164.358 6.88782C164.654 7.61395 163.965 8.59423 163.138 8.4127C163.827 8.50346 164.378 9.15698 164.299 9.79234C164.221 10.3733 163.532 10.8816 162.824 10.827Z" fill="#333333"/>
<path d="M163.291 50.5068L163.488 50.9243C163.429 50.7973 163.35 50.6521 163.291 50.5068Z" fill="#B79A7D"/>
<path d="M150.901 174.624C150.921 173.626 150.941 172.61 150.941 171.612C149.053 170.994 146.889 171.121 145.118 171.974C144.922 172.065 144.548 172.011 144.666 171.848C143.014 173.227 141.105 174.334 139.059 175.115C138.587 175.296 138.096 175.46 137.742 175.787C136.994 176.458 137.112 177.783 137.977 178.328C138.784 178.855 139.886 178.673 140.849 178.473C143.584 177.911 146.318 177.366 149.053 176.803C149.544 176.694 150.095 176.585 150.43 176.24C150.863 175.823 150.883 175.206 150.901 174.624Z" fill="#4D4D4D"/>
<path d="M169.886 171.444C169.491 170.5 169.099 169.573 168.706 168.629C166.698 168.703 164.751 169.573 163.452 170.989C163.315 171.135 162.941 171.208 162.981 171.026C161.997 172.86 160.679 174.547 159.105 175.982C158.751 176.309 158.358 176.636 158.161 177.052C157.748 177.942 158.378 179.122 159.401 179.34C160.364 179.54 161.308 178.995 162.115 178.487C164.417 177.035 166.738 175.564 169.059 174.112C169.492 173.839 169.924 173.549 170.102 173.113C170.319 172.568 170.102 171.988 169.886 171.444Z" fill="#4D4D4D"/>
<path d="M134.494 105.262C133.903 106.024 133.117 106.641 132.507 107.404C130.796 109.546 130.834 112.632 132.252 114.955C133.687 117.261 136.343 118.803 139.156 119.385C142.028 119.966 145.018 119.639 147.93 119.966C150.88 120.31 153.733 121.345 156.704 121.581C161.09 121.927 165.399 120.511 169.549 119.13C172.539 118.132 175.962 116.68 176.611 113.794C176.927 112.359 176.454 110.889 175.942 109.51C174.645 106.006 173.129 102.593 171.359 99.2893C171.103 98.7991 170.828 98.309 170.376 97.9459C169.372 97.1654 167.877 97.3469 166.579 97.5647C160.127 98.6539 153.556 99.2711 147.006 99.4164C145.431 99.4527 143.858 99.4709 142.304 99.4527C140.907 99.4345 138.448 98.8899 137.149 99.2893C135.772 99.7249 136.205 100.469 135.91 101.903C135.655 103.101 135.262 104.263 134.494 105.262Z" fill="#662E2A"/>
<path d="M156.924 48.5507C157.436 48.4962 157.986 48.4599 158.477 48.5869C159.56 48.8775 159.973 49.8577 160.229 50.7109C161.193 53.8151 162.136 56.9193 163.1 60.0235C163.868 62.4924 164.615 64.943 165.382 67.4118C167.704 74.9273 170.025 82.479 171.422 90.1215C171.874 92.6267 172.248 95.15 172.504 97.6732C172.524 97.9456 172.563 98.2542 172.386 98.4902C172.17 98.7807 171.737 98.9258 171.324 99.0529C159.816 102.429 146.655 103.918 135.265 100.342C135.501 94.914 135.737 89.5043 135.993 84.0765C136.21 79.3567 136.405 74.655 136.977 69.9533C137.684 64.0172 138.983 58.1356 140.832 52.3628C141.107 51.5278 141.363 48.8411 142.307 48.3329C143.292 47.8064 145.179 48.7322 146.379 48.8956C149.861 49.3675 153.461 48.8774 156.924 48.5507Z" fill="#AA4A4D"/>
<path d="M161.523 51.0214C165.673 59.4446 169.843 67.8495 173.995 76.2726C174.408 77.1076 174.841 77.9971 174.722 78.9048C174.605 79.9577 173.798 80.829 173.031 81.6278C168.546 86.3295 163.844 91.1764 157.628 93.6997C156.625 94.1172 155.522 94.4621 154.421 94.335C153.319 94.2079 152.238 93.4819 152.1 92.4653C151.923 91.0675 153.438 90.0691 154.716 89.3066C158.277 87.219 161.464 84.5505 164.08 81.4826C165.083 80.3026 166.027 78.9956 166.205 77.4889C166.402 75.8369 165.614 74.2213 164.827 72.7146C162.211 67.6135 159.162 62.8392 156.271 57.9016C155.188 56.0681 154.677 54.5432 155.975 52.6734C157.057 51.1667 160.244 48.4255 161.523 51.0214Z" fill="#B79A7D"/>
<path d="M152.568 24.42C152.293 24.892 151.997 25.4003 152.017 25.9449C152.037 26.4895 152.47 27.0704 153.06 27.0522C152.017 27.5424 151.918 29.1399 152.903 29.757C152.194 30.338 152.351 31.5724 153.177 32.008C152.587 32.5527 152.843 33.66 153.65 33.9323C153.08 34.259 152.863 35.0215 153.177 35.5661C153.493 36.1107 154.28 36.383 154.909 36.147C154.554 36.4919 154.2 36.8732 154.181 37.3451C154.161 37.8171 154.693 38.3072 155.145 38.1076C154.417 38.634 154.476 39.8321 155.263 40.3041C156.03 40.7761 157.25 40.3404 157.486 39.5053C157.84 39.9592 158.607 39.9955 159.119 39.6869C159.63 39.3782 159.906 38.8337 160.023 38.2891C160.692 38.3073 161.401 38.2527 161.932 37.8898C162.463 37.5267 162.719 36.7461 162.266 36.2741C162.856 36.3285 163.466 36.0199 163.742 35.5298C164.017 35.0397 163.938 34.4043 163.545 33.9868C164.292 33.7144 164.981 33.188 165.099 32.4619C165.217 31.7358 164.548 30.9189 163.761 31.046C164.882 30.5921 165.532 29.3214 165.178 28.2322C165.079 27.9417 164.705 27.6331 164.489 27.8691C165.138 27.4153 165.591 26.7073 165.551 25.9631C165.512 25.2187 164.844 24.5107 164.037 24.4745C164.667 24.1478 164.941 23.3308 164.627 22.7136C164.312 22.1146 163.427 21.8059 162.758 22.0783C162.837 21.6063 162.915 21.1343 162.975 20.6804C162.994 20.5171 163.014 20.3173 162.895 20.1904C162.798 20.0814 162.621 20.0633 162.444 20.0633C161.912 20.0451 161.362 20.1177 160.85 20.2811C161.008 19.7909 160.732 19.2282 160.24 19.0104C159.748 18.7925 159.099 18.9196 158.765 19.3189C157.172 18.1027 154.397 18.6836 153.513 20.4082C152.351 19.6094 151.525 21.1161 151.308 21.9693C151.191 22.4776 151.171 23.0948 151.407 23.5668C151.467 23.6576 152.41 24.6923 152.568 24.42Z" fill="#333333"/>
<path d="M94.4771 88.5964C94.5361 88.8869 94.5951 89.1773 94.7525 89.4315C94.9098 89.6855 95.1853 89.9035 95.5 89.9035C95.6377 89.9035 95.7951 89.8671 95.9329 89.9035C96.1493 89.9397 96.3066 90.1213 96.4049 90.3209C96.7591 91.0289 96.5624 91.9366 97.1328 92.4994C97.5853 92.9532 98.3722 92.9894 99.0017 92.7898C99.5329 92.6083 100.025 92.227 100.221 91.7368C100.398 91.2286 100.261 90.6659 100.064 90.1757C99.3754 88.4875 98.018 87.0171 97.7426 85.2199C97.7033 84.9657 97.6836 84.6753 97.5066 84.4756C97.2115 84.1488 96.6804 84.167 96.2279 84.2577C95.5787 84.3848 94.1427 84.639 93.9263 85.347C93.7886 85.7645 94.064 86.418 94.1623 86.8356C94.2607 87.4164 94.359 88.0155 94.4771 88.5964Z" fill="#F9E9DE"/>
<path d="M14.0739 40.9256C13.7789 39.8364 13.6609 38.729 13.2674 37.658C13.169 37.3675 13.0314 37.0771 12.7756 36.8774C12.5985 36.7322 12.3625 36.6596 12.1657 36.5507C11.1232 35.9516 11.0248 34.3904 9.90349 33.9728C9.25432 33.7188 8.46742 33.9729 7.91662 34.3904C7.05105 35.0258 6.50021 36.0242 6.48053 37.0408C6.44119 38.2933 7.14939 39.4733 7.95594 40.4717C8.76248 41.4701 9.72645 42.396 10.3363 43.5033C10.592 43.9571 10.7887 44.4473 11.1035 44.8648C11.4182 45.2824 11.8903 45.6454 12.4412 45.6817C13.11 45.7362 13.6806 45.3186 14.2116 44.9375C14.9002 44.4291 15.8443 44.0479 15.2149 43.2129C14.6641 42.5049 14.31 41.7787 14.0739 40.9256Z" fill="#F9E9DE"/>
<path d="M66.7738 123.455C66.9115 125.652 67.069 127.848 67.5214 130.008C67.8755 131.696 68.4066 133.348 68.9574 134.982C72.1049 144.312 76.0393 153.426 80.7409 162.193C81.1343 162.938 81.6065 163.736 82.4327 164.063C83.731 164.572 85.2655 163.555 85.6982 162.303C86.1311 161.05 85.7769 159.707 85.4425 158.436C83.672 151.955 81.9015 145.492 80.131 139.012C79.6983 137.451 79.2851 135.889 79.0294 134.292C78.7344 132.423 78.6753 130.535 78.6359 128.647C78.5376 125.161 78.4393 121.657 78.8525 118.19C79.1475 115.757 79.6787 113.343 80.1705 110.929C81.0557 106.59 81.7835 102.215 82.3344 97.8223C82.4917 96.5697 82.6491 95.2808 82.3344 94.0464C81.5672 90.8878 77.9278 88.8183 74.4263 88.8183C71.8296 88.8183 69.0164 89.7441 66.9508 91.1782C65.2197 92.3944 65.4164 93.5563 65.5148 95.4079C65.8296 101.362 65.9279 107.335 66.2033 113.289C66.3803 116.684 66.5575 120.078 66.7738 123.455Z" fill="#ADADAD"/>
<path d="M47.4584 99.4748C47.4978 96.8426 47.5568 94.1741 48.2846 91.7053C49.0125 89.2364 50.4682 86.9491 52.5731 85.9869C55.1107 84.8252 58.2584 85.8418 60.2648 88.1109C62.2714 90.3801 63.1961 93.684 63.0976 96.8245C63.0386 98.4764 62.7238 100.092 62.527 101.726C62.1336 104.776 62.1533 107.898 62.0747 110.984C61.8385 120.66 60.855 130.245 59.8714 139.829C59.1632 146.673 58.4747 153.517 57.7665 160.361C57.5895 162.049 57.432 163.756 57.255 165.443C57.0386 167.404 56.8223 168.094 54.8748 167.912C52.4355 167.695 52.3174 165.843 52.0223 163.41C50.3306 149.741 48.855 136.035 48.0485 122.294C47.5961 114.705 47.3208 107.063 47.4584 99.4748Z" fill="#ADADAD"/>
<path d="M40.4964 96.844C39.3555 99.1857 37.5653 101.255 36.6998 103.688C35.8539 106.138 36.3064 109.297 38.7457 110.532C41.4211 111.893 45.0014 110.277 47.7358 111.53C49.7817 112.455 50.7848 114.743 52.811 115.724C54.5816 116.577 56.7258 116.25 58.5946 115.614C60.4635 114.979 62.2143 114.035 64.1618 113.672C66.2471 113.273 68.47 113.581 70.3586 114.507C71.952 115.306 73.4273 116.558 75.2371 116.595C78.5224 116.649 80.5683 112.728 83.8338 112.528C85.2108 112.455 86.5289 113.055 87.9059 112.964C90.5615 112.782 92.2337 110.023 92.0961 107.573C91.9583 105.122 90.601 102.907 89.5387 100.656C88.319 98.0602 87.4731 95.319 87.0404 92.5235C86.6862 90.1636 86.3715 87.4043 84.1682 86.188C83.0665 85.5708 81.7092 85.4982 80.4305 85.4982C71.6175 85.4075 62.8831 87.0593 54.0701 86.7508C51.0406 86.6419 46.6735 84.8447 44.549 87.2228C42.208 89.8912 41.9718 93.7942 40.4964 96.844Z" fill="#F2F2F2"/>
<path d="M50.8639 161.483C50.49 162.373 50.7851 163.353 51.0212 164.278C51.4736 166.058 51.6704 167.909 51.5917 169.743C51.5917 169.888 51.5721 170.033 51.5131 170.178C51.3556 170.505 50.9229 170.633 50.5491 170.705C49.054 171.014 47.5 171.068 46.0049 170.869C45.0212 170.741 43.9196 170.542 43.1524 171.122C42.7 171.449 42.4836 171.976 42.3263 172.484C42.0901 173.192 41.9328 173.9 41.8148 174.626C41.6771 175.57 41.6967 176.696 42.5229 177.276C43.0541 177.64 43.7427 177.694 44.4115 177.713C48.4835 177.839 52.5753 177.73 56.6474 177.349C57.4146 177.276 58.2802 177.131 58.6736 176.514C58.8901 176.169 58.89 175.752 58.89 175.353C58.8704 172.484 58.7917 169.616 58.6539 166.748C58.5752 165.313 58.4769 163.879 58.3785 162.446C58.3392 162.009 58.4572 161.301 57.9457 161.084C57.513 160.885 56.3327 161.266 55.8606 161.32C55.3688 161.392 50.9032 161.392 50.8639 161.483Z" fill="#736357"/>
<path d="M85.2648 156.366C86.1108 159.035 86.9764 161.703 87.8223 164.373C88.1371 165.334 88.4517 166.315 88.9631 167.205C89.2582 167.712 89.6123 168.184 89.9468 168.656C90.891 170.018 91.6189 171.506 92.1107 173.068C92.2091 173.413 92.3074 173.757 92.268 174.121C92.209 174.538 91.973 174.919 91.6975 175.246C90.4188 176.752 88.1959 177.515 86.1698 177.133C85.7566 177.061 85.3436 176.934 85.0288 176.698C84.6156 176.408 84.3796 175.954 84.2026 175.518C82.8059 172.323 82.9042 168.693 81.3501 165.553C80.9763 164.789 80.5042 164.063 80.1304 163.283C79.8551 162.702 79.6387 162.103 79.4223 161.504C79.1666 160.796 78.5173 159.688 78.5173 158.945C78.5173 158.237 79.4222 158.073 80.1107 157.801C81.8026 157.147 83.514 156.675 85.2648 156.366Z" fill="#736357"/>
<path d="M41.6371 88.4378C41.9323 88.7102 42.4043 88.7827 42.7388 89.0187C43.1519 89.3091 43.329 89.8537 43.1322 90.3075C42.9552 90.7433 42.4634 91.1063 42.5618 91.5601C42.6798 92.1774 43.6437 92.2319 44.2339 91.9414C44.8241 91.651 45.4141 91.179 46.083 91.2697C46.8305 91.3605 47.2437 92.1048 47.5979 92.7401C47.9519 93.3574 48.5814 94.0471 49.3093 93.8656C49.8404 93.7385 50.1945 93.1758 50.7453 93.1214C51.5715 93.0305 51.965 93.9745 52.3977 94.61C52.9289 95.3905 53.9911 95.9351 54.9354 95.6265C55.742 95.3542 56.273 94.5555 57.119 94.4647C57.9845 94.374 58.6731 95.0638 59.283 95.6265C59.8927 96.1893 60.837 96.7339 61.5649 96.3164C61.8009 96.1893 61.9583 95.9895 62.1354 95.808C63.0207 94.9185 64.4763 94.5555 65.7352 94.9004C66.5419 95.1182 67.2304 95.5902 67.9976 95.8444C68.7845 96.1166 69.7681 96.1166 70.3189 95.5539C70.5746 95.2816 70.7123 94.9367 70.9681 94.6644C71.6173 94.0109 72.7582 94.1742 73.6632 94.4829C74.5681 94.7733 75.5713 95.1545 76.4368 94.7733C77.3023 94.374 77.7352 93.3029 78.6992 93.1396C79.2696 93.0487 79.8204 93.3029 80.3909 93.3392C81.3745 93.3936 82.3187 92.6856 82.4565 91.7961C83.145 91.8506 83.8728 91.887 84.5219 91.6146C85.1514 91.3423 85.6434 90.6525 85.368 90.0535C86.2925 90.0897 86.922 88.8373 86.2728 88.22C85.9383 87.9114 85.368 87.748 85.25 87.3123C85.1515 86.9311 85.427 86.441 85.0925 86.205C84.1679 86.568 83.6171 87.4212 82.9089 88.0747C81.8074 89.0913 80.2926 89.5997 78.7778 89.9626C73.132 91.3423 67.1714 90.9066 61.3484 90.4346C57.2174 90.1079 53.0075 89.7449 49.1322 88.3834C48.4633 88.1474 47.7945 87.8932 47.106 87.7298C45.7683 87.4212 44.3716 87.1489 43.0536 86.8767C42.129 86.677 40.7126 87.5665 41.6371 88.4378Z" fill="white"/>
<path d="M63.8047 23.0663C62.762 23.9195 61.3456 24.2463 60.0079 24.6274C58.6703 25.0087 57.2933 25.4807 56.4276 26.4972C55.8179 27.2052 55.5621 28.1129 55.3064 28.9842C54.8342 30.5817 54.3818 32.3607 55.208 33.8493C55.6211 34.6117 56.3489 35.2108 56.6441 36.0277C57.0178 37.0443 56.6244 38.1516 56.1129 39.1138C55.6014 40.0758 54.9719 41.0198 54.8145 42.0727C54.6965 42.8352 54.8342 43.6521 54.5982 44.3781C54.1654 45.6852 52.5916 46.4476 51.1162 46.5021C49.6408 46.5566 48.2048 46.0301 46.8277 45.5218C45.8835 45.1769 44.8408 44.7049 44.6048 43.7972C44.4474 43.1256 44.8015 42.4539 45.254 41.9093C45.7065 41.3648 46.2769 40.9109 46.6311 40.3118C46.8081 40.0033 46.9457 39.6402 46.7884 39.3134C46.5917 38.914 46.0015 38.7689 45.8048 38.3694C45.5687 37.8794 46.0212 37.3347 46.5131 37.0261C46.9851 36.7175 47.5753 36.427 47.7131 35.9006C47.9491 35.0111 46.7294 34.3576 46.4343 33.4862C46.0998 32.5423 46.8868 31.5983 47.6146 30.8721C48.3425 30.1461 49.1096 29.2021 48.7753 28.2581C48.5786 27.7135 48.0277 27.2234 48.1654 26.6787C48.3621 25.9527 49.5031 25.9163 50.0933 25.4081C51.0965 24.5548 50.172 23.0119 50.467 21.7955C50.7818 20.5067 52.4343 19.8169 52.7885 18.5461C52.8868 18.2012 52.8868 17.8201 53.0245 17.4932C53.2015 17.0757 53.595 16.7671 53.9687 16.4766C55.326 15.4056 56.7621 14.2983 58.5129 13.9897C59.6735 13.7718 60.8735 13.9352 62.0144 14.1531C63.0373 14.3527 64.0997 14.6251 64.7882 15.3511C66.3423 17.0031 65.5161 21.6866 63.8047 23.0663Z" fill="#C6B697"/>
<path d="M20.8824 45.4147C26.2529 46.8851 31.8593 48.301 37.4069 47.5568C43.7019 46.7035 49.4265 43.1274 55.7805 43.0729C56.1542 43.0729 56.5674 43.091 56.8821 43.2725C57.1378 43.4359 57.3149 43.6901 57.4723 43.9443C58.928 46.3949 59.2624 49.3903 58.4165 52.0769C57.9445 53.5655 57.0985 54.9632 55.8985 56.0525C55.0132 56.8512 53.951 57.4502 52.8494 57.9404C49.092 59.6286 44.7642 60.1188 40.5938 59.7375C36.4233 59.3744 32.3709 58.1945 28.4955 56.7241C25.5447 55.5986 22.6726 54.2915 20.0759 52.6033C17.2038 50.7154 14.7055 48.3736 12.2466 46.0318C12.1088 45.9048 11.9711 45.7595 11.9514 45.578C11.8727 44.2891 14.7251 43.2181 15.8267 43.4541C17.4989 43.8353 19.1513 44.9609 20.8824 45.4147Z" fill="#D5AFCB"/>
<path d="M69.4714 41.6902C70.3764 41.4724 71.3403 41.1819 72.2648 41.3453C73.4845 41.545 74.2124 42.3801 74.7632 43.1607C78.5599 48.5159 80.0353 54.4883 81.3533 60.3881C83.2417 68.7748 85.7402 76.5263 85.6811 85.022C85.6615 87.0552 85.386 89.3425 83.1435 90.6313C82.0025 91.2849 80.5467 91.5753 79.1107 91.775C72.9336 92.6464 65.7534 92.9368 59.4781 92.5375C56.724 92.3559 53.9503 92.1744 51.2946 91.666C48.2258 91.0851 45.1372 89.9415 43.7012 87.9628C42.4225 86.2201 42.6585 84.1325 42.9733 82.1901C44.1142 74.7472 45.7274 67.3226 47.8126 59.9706C49.2093 55.0328 50.8225 50.1134 52.4159 45.212C53.1241 43.0154 54.206 40.5648 58.0224 41.2183C62.0551 41.8899 65.242 42.7068 69.4714 41.6902Z" fill="#D5AFCB"/>
<path d="M65.3354 40.7303C64.0764 40.8392 62.5617 41.0571 61.3223 40.8574C57.8797 40.2947 55.8141 37.0271 54.0437 34.1589C52.4306 31.5448 52.9223 26.7343 53.4535 23.7208C53.6305 22.7042 53.847 21.6514 54.4569 20.7981C55.6765 19.1462 58.0175 18.7831 60.1026 18.6924C63.7616 18.5108 67.5781 18.7286 70.7255 20.4895C78.201 24.6284 74.2074 39.9316 65.3354 40.7303Z" fill="#F9E9DE"/>
<path d="M80.8182 47.4239C90.1821 57.5898 93.9787 70.7689 97.5197 83.4943C97.5983 83.7667 97.677 84.0753 97.5589 84.3294C97.3229 84.9285 95.159 85.2189 94.1755 85.5093C93.723 85.6364 93.2508 85.4731 93.0738 85.0737C90.4967 79.3555 87.2902 72.9655 82.805 67.2473C79.205 62.6545 76.7264 58.3885 70.9625 55.6655C68.5626 54.5219 68.0117 53.4508 68.1888 50.9456C68.3658 48.495 70.1559 45.9535 72.3395 44.7736C75.6247 42.9583 78.7526 45.1729 80.8182 47.4239Z" fill="#D5AFCB"/>
<path d="M58.6521 48.1918C59.3407 51.2052 59.8127 54.2368 60.3045 57.2866C60.3832 57.7404 60.5012 58.2486 60.934 58.4483C61.5635 58.757 62.2717 58.1761 62.6651 57.6315C64.8487 54.618 65.1832 50.7877 66.7176 47.4475C67.3471 46.0497 68.2127 44.7245 68.6259 43.2541C68.7045 42.9818 68.7636 42.6913 68.6455 42.4191C68.4094 41.8563 67.5831 41.8018 66.9339 41.82C65.911 41.8563 64.8881 41.8382 63.8455 41.8018C63.039 41.7656 62.2324 41.7292 61.4652 41.5114C60.5209 41.2572 59.439 40.5856 58.4358 40.6037C57.5111 40.64 57.5702 41.2572 57.5702 41.9834C57.5898 44.1073 58.18 46.1586 58.6521 48.1918Z" fill="#F7F7F7"/>
<path d="M55.9775 42.799C56.0563 43.1258 56.4496 43.3436 56.5086 43.6885C56.5676 44.0698 56.1544 44.3783 55.7611 44.5054C55.3677 44.6143 54.9152 44.6325 54.5611 44.8322C54.207 45.0318 54.03 45.5583 54.3447 45.7943C54.4824 45.8851 54.6595 45.9033 54.8366 45.9396C55.4857 46.0847 56.0759 46.702 55.8398 47.2829C55.6825 47.6459 55.2693 47.8638 54.9939 48.1724C54.7186 48.481 54.6397 49.0437 55.0332 49.189C55.1709 49.2434 55.3284 49.2253 55.4661 49.2253C55.9775 49.2434 56.4693 49.6792 56.43 50.1511C56.3906 50.5505 56.0364 50.8409 55.7611 51.1314C55.4857 51.4218 55.2496 51.8575 55.4661 52.2024C55.6824 52.5473 56.2333 52.5836 56.4496 52.9285C56.9415 53.6728 55.3284 54.6168 55.8988 55.3066C56.1742 55.6334 56.784 55.579 57.0595 55.9239C57.3939 56.3414 56.9217 56.9041 56.4889 57.2309C56.0561 57.5576 55.5841 58.1203 55.9184 58.5378C56.1742 58.8465 56.6856 58.792 57.0988 58.7738C57.5118 58.7376 58.0627 58.8647 58.1217 59.2458C58.161 59.5908 57.748 59.8449 57.7087 60.208C57.6104 60.8978 58.8496 61.0612 59.1841 61.6784C59.5971 62.4772 58.3578 63.2396 58.3972 64.1291C58.4169 64.8552 59.302 65.3635 59.3414 66.0715C59.3807 66.6342 58.8889 67.1606 59.0267 67.7234C59.0661 67.8686 59.1448 68.0139 59.1841 68.1591C59.2431 68.5039 59.0464 68.8308 58.8692 69.1394C58.6332 69.6114 58.4955 70.1559 58.7118 70.6279C58.9282 71.0999 59.6364 71.3904 60.0889 71.0999C60.4234 70.8821 60.5217 70.4283 60.4627 70.047C60.4234 69.6658 60.2856 69.2846 60.3249 68.8852C60.4036 67.9594 61.4266 67.2515 61.4069 66.3438C61.3873 65.8355 61.0725 65.3816 61.0528 64.8734C61.0135 64.0565 61.8005 63.2941 61.6234 62.4953C61.525 62.0233 61.1118 61.6602 60.9545 61.2064C60.6791 60.4258 61.2103 59.6089 61.2496 58.7738C61.2693 58.3745 61.1511 57.9751 61.0528 57.5758C60.6987 56.2143 60.3249 54.8528 59.9709 53.4913C59.8922 53.1645 59.7939 52.8378 59.8135 52.4929C59.8135 52.1842 59.9119 51.8756 59.9512 51.5852C60.1282 50.4416 59.6759 49.3161 59.3807 48.2086C58.9677 46.7564 58.7906 45.2498 58.8103 43.743C58.8299 42.9987 58.9479 41.6735 57.9643 41.4375C57.2758 41.2742 55.7808 42.0366 55.9775 42.799Z" fill="white"/>
<path d="M70.8068 43.0561C71.2395 43.8367 70.9051 44.8352 70.2559 45.4887C70.1181 45.6339 69.9411 45.7791 69.8821 45.9607C69.587 46.6867 70.8658 47.304 70.7083 48.0664C70.5313 48.9378 68.8789 48.7925 68.5248 49.6095C68.3281 50.0815 68.6625 50.5715 68.9576 50.989C69.2526 51.4066 69.5084 51.9875 69.1542 52.3869C68.5837 53.0403 67.0887 52.3324 66.6363 53.0585C66.3805 53.4579 66.6953 53.948 66.8723 54.3838C67.0887 54.892 67.0494 55.5637 66.5577 55.8542C66.0265 56.1628 65.2199 55.8904 64.7477 56.2717C64.4133 56.5439 64.4134 57.0341 64.3937 57.4517C64.374 57.8692 64.2364 58.3774 63.8035 58.5045C63.6855 58.5408 63.5477 58.5408 63.4494 58.6134C63.3314 58.7041 63.3117 58.8676 63.3117 59.0128C63.292 59.5574 63.292 60.102 63.2723 60.6284C62.8002 60.5014 62.2298 60.8644 62.2101 61.3364C62.2101 61.5724 62.3085 61.8266 62.1904 62.0262C62.0528 62.2622 61.6789 62.3167 61.4231 62.1896C61.1674 62.0626 60.9904 61.8266 60.8527 61.5906C60.4396 60.8826 60.1249 60.0476 60.4003 59.2851C60.6166 58.6861 61.1675 58.2503 61.6003 57.7421C62.3675 56.8526 62.7805 55.7633 63.1937 54.7105C64.2757 51.9875 65.4559 49.2827 66.7149 46.6141C67.3051 45.3797 67.8559 44.0726 68.4854 42.8746C68.9969 42.0395 70.2953 42.1122 70.8068 43.0561Z" fill="white"/>
<path d="M70.2154 25.3545C71.4744 26.0987 72.5169 27.2424 72.8711 28.5857C73.3431 30.3829 72.5366 32.2709 71.4547 33.832C70.3924 35.3932 69.0546 36.8273 68.2874 38.5337C67.953 39.278 67.7366 40.0768 67.5792 40.8755C67.3039 42.2552 67.2055 43.7074 67.6776 45.0326C68.1497 46.3577 69.3301 47.5377 70.8252 47.7919C72.3203 48.0459 74.0316 47.102 74.2087 45.7224C74.307 44.978 74.012 44.1067 74.5432 43.5258C75.2514 42.7634 76.9431 43.1083 77.3169 42.1643C77.6906 41.2385 76.1955 40.5306 76.0579 39.5322C75.8808 38.1888 78.2021 37.6442 78.5365 36.319C78.8316 35.1572 77.4349 33.9773 77.8873 32.8699C78.1038 32.3435 78.6743 32.0349 79.1267 31.6536C79.5792 31.2724 79.9529 30.6734 79.6579 30.1832C79.5398 30.0017 79.3627 29.8565 79.225 29.6931C78.8906 29.2392 78.9693 28.6402 79.0283 28.0956C79.3037 25.4815 78.6152 22.7767 77.1005 20.5439C76.5104 19.6725 75.802 18.892 75.0545 18.1295C74.2086 17.2945 73.3235 16.4957 72.2809 15.8785C70.4317 14.753 68.1891 14.2266 66.0055 14.3537C65.14 14.4081 64.2744 14.5715 63.5072 14.9526C61.3826 16.0237 60.4776 19.2913 61.6777 21.2155C63.5859 24.229 67.3432 23.6299 70.2154 25.3545Z" fill="#C6B697"/>
<path d="M17.4971 34.3421C17.6348 34.6325 17.7923 34.9774 17.6545 35.2861C17.5562 35.4675 17.3791 35.5946 17.2021 35.7217C13.4643 38.1542 9.66772 40.6957 5.77267 42.9103C5.51694 43.0556 5.24155 43.219 4.9268 43.2916C4.31697 43.4368 3.90386 43.8907 3.39239 43.5276C2.88092 43.1827 2.035 41.8212 1.70057 41.331C1.20877 40.6049 0.539947 39.6246 0.185852 38.8622C0.0678202 38.6262 -0.0305323 38.354 0.00881153 38.0998C0.0481554 37.7549 0.34323 37.4825 0.618637 37.2284C1.52355 36.4296 2.72351 35.9032 3.66776 35.159C5.02513 34.0879 6.46119 33.3073 7.97593 32.4178C9.01854 31.8006 10.0414 30.9838 11.1431 30.4572C11.8906 30.1123 12.7759 29.4952 13.5825 29.3317C14.1725 29.2228 14.448 29.6041 14.743 30.0034C15.766 31.3831 16.7496 32.8171 17.4971 34.3421Z" fill="#FF8FA0"/>
<path d="M16.6547 34.396C16.7727 34.6502 16.9104 34.9588 16.7924 35.2129C16.7137 35.3763 16.5564 35.4853 16.4187 35.576C13.2908 37.6454 10.399 39.5878 7.13349 41.4577C6.9171 41.5847 6.20889 42.093 5.95316 42.1475C5.44169 42.2746 5.57938 42.2746 5.1466 41.9659C4.71382 41.6573 3.98594 40.4955 3.71053 40.0598C3.29742 39.4427 2.72698 38.5894 2.41223 37.8996C2.31388 37.6818 2.21548 37.4639 2.25482 37.2461C2.29417 36.9375 2.53023 36.7015 2.74662 36.5019C3.49416 35.812 4.22203 35.6123 5.02858 34.9769C6.16955 34.0511 7.36951 33.3976 8.62852 32.6352C9.49408 32.1087 10.3597 31.4008 11.2646 30.965C11.8744 30.6746 12.6219 30.1301 13.3104 30.0211C13.8023 29.9303 14.0383 30.2752 14.2941 30.6201C15.1596 31.8183 16.0055 33.0709 16.6547 34.396Z" fill="white"/>
<path d="M16.6547 34.396C16.7727 34.6502 16.9104 34.9588 16.7924 35.2129C16.7137 35.3763 16.5564 35.4853 16.4187 35.576C13.2908 37.6454 10.399 39.5878 7.13349 41.4577C6.9171 41.5847 6.20889 42.093 5.95316 42.1475C5.44169 42.2746 5.57938 42.2746 5.1466 41.9659C4.71382 41.6573 3.98594 40.4955 3.71053 40.0598C3.29742 39.4427 2.72698 38.5894 2.41223 37.8996C2.31388 37.6818 2.21548 37.4639 2.25482 37.2461C2.29417 36.9375 2.53023 36.7015 2.74662 36.5019C3.49416 35.812 4.22203 35.6123 5.02858 34.9769C6.16955 34.0511 7.36951 33.3976 8.62852 32.6352C9.49408 32.1087 10.3597 31.4008 11.2646 30.965C11.8744 30.6746 12.6219 30.1301 13.3104 30.0211C13.8023 29.9303 14.0383 30.2752 14.2941 30.6201C15.1596 31.8183 16.0055 33.0709 16.6547 34.396Z" fill="white"/>
<path d="M16.6547 34.396C16.7727 34.6502 16.9104 34.9588 16.7924 35.2129C16.7137 35.3763 16.5564 35.4853 16.4187 35.576C13.2908 37.6454 10.399 39.5878 7.13349 41.4577C6.9171 41.5847 6.20889 42.093 5.95316 42.1475C5.44169 42.2746 5.57938 42.2746 5.1466 41.9659C4.71382 41.6573 3.98594 40.4955 3.71053 40.0598C3.29742 39.4427 2.72698 38.5894 2.41223 37.8996C2.31388 37.6818 2.21548 37.4639 2.25482 37.2461C2.29417 36.9375 2.53023 36.7015 2.74662 36.5019C3.49416 35.812 4.22203 35.6123 5.02858 34.9769C6.16955 34.0511 7.36951 33.3976 8.62852 32.6352C9.49408 32.1087 10.3597 31.4008 11.2646 30.965C11.8744 30.6746 12.6219 30.1301 13.3104 30.0211C13.8023 29.9303 14.0383 30.2752 14.2941 30.6201C15.1596 31.8183 16.0055 33.0709 16.6547 34.396Z" fill="white"/>
<path d="M3.12099 39.8057C2.92427 39.6968 2.68824 39.6606 2.47185 39.715C2.21611 39.7877 2.03904 39.9873 1.96035 40.2233C1.90134 40.4593 1.9407 40.7134 2.03907 40.9312C2.0784 41.0221 2.13742 41.1128 2.2161 41.1854C2.35381 41.2943 2.53083 41.3125 2.68821 41.2943C2.84558 41.2761 3.00298 41.2035 3.14069 41.1128C3.27839 41.0221 3.41608 40.9131 3.49476 40.7679C3.73083 40.3866 3.47509 40.0055 3.12099 39.8057Z" fill="#E5E5E5"/>
<path d="M16.3744 32.7641C16.4137 32.8185 16.4531 32.8731 16.4531 32.9456C16.4531 33.0183 16.394 33.0727 16.3154 33.0727C16.2563 33.0727 16.217 33.0183 16.1973 32.9638C16.0203 32.6916 15.8432 32.4192 15.6465 32.1287C15.6072 32.0561 15.5285 31.9109 15.6465 31.8565C15.7645 31.8201 15.8432 31.9472 15.8825 32.0198C16.0597 32.274 16.217 32.5281 16.3744 32.7641Z" fill="#8A8A8A"/>
<path d="M15.5533 31.5468C15.514 31.4923 15.4353 31.4923 15.3763 31.5286C15.3369 31.565 15.3369 31.6557 15.3959 31.6921C15.4549 31.7283 15.5336 31.7101 15.5729 31.6557C15.5729 31.6194 15.573 31.5831 15.5533 31.5468Z" fill="#8A8A8A"/>
<path d="M8.64817 40.7162C8.60882 40.7887 8.5695 40.8433 8.49082 40.8795C8.39246 40.9158 8.27442 40.8433 8.17606 40.7887C7.84163 40.5527 7.50719 40.3167 7.17277 40.0807C6.85802 39.8629 6.54326 39.6451 6.36621 39.3365C6.28752 39.1913 6.24822 38.9734 6.40559 38.9008C6.50396 38.8645 6.6023 38.8827 6.70066 38.9371C7.07442 39.0823 7.27115 39.3547 7.56623 39.6088C7.68427 39.7178 7.95967 39.9718 8.11705 40.0445C8.27442 40.0989 8.35308 39.9356 8.45143 39.8085C8.53012 39.6996 8.6088 39.4091 8.62847 39.282C8.66782 39.0098 8.68755 38.9553 8.74656 38.7919C8.7859 38.683 8.80555 38.683 8.90391 38.6285C9.45472 38.3018 9.17931 39.3365 9.13997 39.518C9.02193 39.9356 8.86456 40.3349 8.64817 40.7162Z" fill="#B79A7D"/>
<path d="M10.0853 35.542C10.105 35.3242 10.2033 35.1246 10.223 34.9066C10.223 34.7251 10.164 34.5255 10.0066 34.4166C9.84922 34.3076 9.61316 34.2895 9.45579 34.3984L9.63282 34.2895C9.82955 34.235 10.0656 34.1806 10.2427 34.2895C10.3607 34.3802 10.4197 34.5255 10.4787 34.6526C10.5574 34.8522 10.6558 35.0337 10.8132 35.179C10.9312 35.2879 11.0885 35.3605 11.2263 35.4513C11.3639 35.5421 11.482 35.6873 11.482 35.8506C11.482 35.9777 11.3837 36.1048 11.2656 36.1774C11.1476 36.25 11.0098 36.2863 10.8525 36.3045C10.7344 36.3226 10.5967 36.3226 10.4787 36.2681C10.3607 36.2137 10.2623 36.123 10.2033 36.014C10.105 35.887 10.0656 35.7054 10.0853 35.542Z" fill="#534741"/>
<path d="M5.67594 34.7433C6.16775 36.2682 6.3055 36.1774 7.0727 36.7765C7.2104 36.8854 7.50546 37.0669 7.66283 37.1396C7.93824 37.2847 8.27267 37.3392 8.58742 37.3938C8.64644 37.4118 8.72513 37.4118 8.78415 37.4118C8.84317 37.3936 8.90215 37.3756 8.9415 37.3392C9.07921 37.2303 9.13825 37.0488 9.09891 36.8854C9.05957 36.6858 8.92186 36.6858 8.72514 36.6676C8.35137 36.6312 8.11531 36.5405 7.74153 36.4316C7.54482 36.3771 7.3481 36.2501 7.19073 36.123C6.75795 35.8143 6.67926 35.8507 6.26614 35.2516C6.18746 35.1427 6.04976 34.7797 6.03009 34.6526C6.01042 34.5073 5.99071 34.3803 5.99071 34.2713C6.01038 34.2169 5.97107 34.1443 5.97107 34.1079C5.9514 34.0353 5.95136 33.9628 5.99071 33.8901C6.01038 33.8539 6.03007 33.8175 6.01039 33.7812C6.01039 33.7631 5.99071 33.7631 5.99071 33.7449C5.99071 33.7268 5.99071 33.7086 5.99071 33.7086C5.99071 33.6723 5.99073 33.6542 6.01039 33.6179C6.01039 33.5997 6.03009 33.5815 6.03009 33.5633C6.03009 33.5271 5.97104 33.4363 5.93169 33.4182C5.89234 33.4 5.73498 33.4 5.69564 33.4363C5.67597 33.4544 5.63661 33.4726 5.61694 33.4908C5.59726 33.5271 5.55796 33.5633 5.53829 33.5997C5.51862 33.636 5.49891 33.6904 5.49891 33.7268C5.45957 33.872 5.57761 34.0535 5.57761 34.2169L5.67594 34.7433Z" fill="#E2CBB7"/>
<path d="M9.51594 36.1426C9.2602 36.2697 8.92578 36.3786 8.82741 36.6145C8.74872 36.7961 8.82744 36.9958 8.90612 37.1592C9.57497 38.5569 10.5782 39.7551 11.3651 41.0984C11.6012 41.5159 11.8176 41.9335 12.0143 42.3692C12.0733 42.4963 12.1323 42.6414 12.1323 42.7867C12.1323 42.8774 12.1126 42.9501 12.1323 43.0409C12.1716 43.2769 12.4864 43.4039 12.7618 43.3858C13.0373 43.3494 13.2733 43.2042 13.5093 43.0772C14.2372 42.6414 14.9651 42.1876 15.6733 41.7519C15.8503 41.643 16.0471 41.5159 16.1061 41.3163C16.1651 41.1348 16.0471 40.935 15.9291 40.7717C15.3389 39.973 14.4929 39.392 13.7455 38.7204C12.9978 38.0669 12.3488 37.3225 11.6209 36.6509C11.2864 36.3423 10.893 35.961 10.4602 35.7614C10.1061 35.5799 9.87004 35.9792 9.51594 36.1426Z" fill="#D9924E"/>
<path d="M12.6631 35.6876C12.8598 35.7057 13.1156 35.7057 13.2336 35.5605C13.3123 35.4516 13.2926 35.3063 13.273 35.1793C13.1943 34.5803 13.1156 33.963 13.0566 33.364C13.1943 33.364 13.3516 33.364 13.4303 33.4548C13.4696 33.5092 13.4893 33.5818 13.4893 33.6544C13.6073 34.435 13.6861 35.2156 13.7451 35.9961C13.7451 36.0688 13.7451 36.1596 13.7058 36.214C13.6665 36.2867 13.568 36.3229 13.4697 36.3592C12.9189 36.5227 12.3484 36.5771 11.7583 36.5952C11.6009 36.5952 11.4435 36.5952 11.3058 36.5227C11.2074 36.45 11.1484 36.3592 11.0894 36.2503C10.9517 35.9781 10.814 35.4879 11.3058 35.5243C11.7779 35.5605 12.2304 35.6332 12.6631 35.6876Z" fill="#E2CBB7"/>
<path d="M12.9561 33.0404C12.9758 33.0041 13.0151 32.9677 13.0545 32.9315C13.1332 32.8406 13.0938 32.6955 13.1529 32.6047C13.2119 32.5139 13.3299 32.4595 13.4479 32.4958C13.5462 32.5139 13.6447 32.6047 13.7037 32.6773C13.7234 32.7136 13.7627 32.7317 13.7627 32.7681C13.7824 32.8044 13.7627 32.8406 13.7627 32.8951C13.7234 33.0766 13.6447 33.2582 13.5267 33.4216C13.5069 33.4579 13.4872 33.4942 13.4479 33.5124C13.3102 33.6031 13.1528 33.5124 13.0742 33.4216C13.0348 33.349 12.9168 33.113 12.9561 33.0404Z" fill="#E2CBB7"/>
<path d="M11.3423 32.8193C11.48 32.8375 11.6177 32.8011 11.7358 32.7649C11.8734 32.7286 12.0111 32.7104 12.1291 32.7467C12.2275 32.783 12.2865 32.8375 12.3653 32.8919C12.4833 33.0009 12.621 33.1279 12.6406 33.2913C12.6406 33.3821 12.621 33.4546 12.6406 33.5455C12.6603 33.6544 12.7587 33.727 12.857 33.7815C12.9554 33.8359 13.0537 33.8904 13.1325 33.963C13.1915 34.0175 13.2112 34.0901 13.2702 34.1445C13.3882 34.2353 13.5455 34.2171 13.6832 34.1626C13.8012 34.0901 13.8997 33.9811 13.9783 33.8722C14.0373 33.7995 14.0964 33.7088 14.057 33.6181C14.0374 33.5636 13.9587 33.5091 13.8997 33.491C13.8407 33.4728 13.7619 33.4546 13.7029 33.4184C13.6635 33.4002 13.6439 33.3821 13.6439 33.3457C13.6439 33.3095 13.6832 33.255 13.6636 33.2187C13.6636 33.1642 13.5849 33.1461 13.5259 33.1461C13.4669 33.1461 13.4078 33.1461 13.3685 33.1098C13.2898 33.0553 13.3685 32.9282 13.3489 32.8557C13.3292 32.7649 13.2111 32.7286 13.1127 32.6922C13.0143 32.6741 12.8963 32.6197 12.8767 32.5289C12.857 32.4744 12.8767 32.4018 12.8373 32.3655C12.7783 32.3111 12.68 32.3655 12.6013 32.3473C12.4636 32.3291 12.4636 32.1477 12.3653 32.0751C12.2668 31.9842 12.0898 32.0024 11.9915 31.9116C11.9718 31.8935 11.9521 31.8572 11.9128 31.8391C11.8734 31.8209 11.8341 31.8027 11.7751 31.8027C11.598 31.7846 11.421 31.7483 11.2636 31.8027C11.1653 31.8391 11.0669 31.9116 10.9882 31.9842C10.9095 32.0569 10.8505 32.1295 10.8308 32.2202C10.7915 32.438 11.1259 32.783 11.3423 32.8193Z" fill="#C6B697"/>
<path d="M16.1194 32.6239C15.7652 33.0051 15.3718 33.3863 14.88 33.5861C14.3095 33.8221 13.6406 33.7857 13.1095 34.0761C13.0702 34.0943 13.0506 34.1125 13.0309 34.1488C13.0112 34.1669 13.0112 34.2032 13.0112 34.2395C13.0309 34.5118 13.1686 34.766 13.3849 34.9475C13.5029 35.0565 13.6604 35.129 13.8178 35.1472C13.9358 35.1654 14.0538 35.1654 14.1718 35.1654C14.5849 35.129 14.9587 34.9656 15.2735 34.7296C15.5882 34.5118 15.8637 34.2214 16.0997 33.9128C16.2767 33.6768 16.4537 33.4408 16.5718 33.1685C16.7095 32.8781 16.7882 32.5695 16.8472 32.2608C16.8472 32.2426 16.8472 32.2246 16.8472 32.2064C16.7882 32.0975 16.4932 32.1337 16.4144 32.2064C16.2964 32.3335 16.2374 32.515 16.1194 32.6239Z" fill="#D5AFCB"/>
<path d="M11.9162 34.6141C11.8375 34.6322 11.7391 34.6686 11.6604 34.7231C11.5621 34.7957 11.5621 34.9046 11.5621 34.9953C11.5424 35.6126 11.7588 36.1753 11.9752 36.7199C12.2899 37.5005 12.5064 38.2629 12.9784 38.9527C13.0965 39.1161 13.2342 39.2976 13.4899 39.2976C13.6276 39.2976 13.7654 39.2432 13.8834 39.2069C14.4341 38.9891 15.044 38.6805 15.5358 38.3356C15.7522 38.1903 15.9685 38.0451 16.1653 37.8817C16.3817 37.682 16.5784 37.446 16.5784 37.2101C16.5784 37.0103 16.4604 36.847 16.3227 36.7017C15.8112 36.139 15.2801 35.6126 14.6899 35.1042C14.2965 34.7593 13.903 34.4326 13.4899 34.1058C13.3129 33.9606 13.0769 33.8153 12.8014 34.0333C12.526 34.2693 12.3097 34.4871 11.9162 34.6141Z" fill="#D5AFCB"/>
<path d="M12.1856 34.3444C12.3037 34.2899 12.4413 34.2355 12.52 34.1629C12.7758 33.945 12.7561 33.5819 12.7561 33.2734C12.7363 32.9829 12.4413 32.6017 12.225 32.3839C12.1463 32.3113 12.0873 32.2386 11.9889 32.1842C11.7921 32.1115 11.5757 32.1842 11.3987 32.275C11.0839 32.4384 10.7889 32.638 10.6315 32.9284C10.2381 33.6183 11.4184 34.6894 12.1856 34.3444Z" fill="#F9E9DE"/>
<path d="M11.2772 35.6152C11.0608 36.8858 11.4936 38.1566 11.9067 39.3728C11.9067 39.391 11.9263 39.4273 11.946 39.4455C12.005 39.4817 12.2018 39.4091 12.3002 39.391C12.3395 39.3728 12.3788 39.3366 12.3592 39.3002C12.2608 38.7011 12.1625 38.0295 12.2215 37.3396C12.2608 36.7951 12.2213 36.3231 12.5558 35.833C12.6935 35.6332 12.6739 35.5061 12.5165 35.3065C12.3591 35.1068 12.0837 34.9797 11.828 34.9979C11.4542 35.0161 11.3362 35.3428 11.2772 35.6152Z" fill="#D5AFCB"/>
<path d="M16.4195 31.9308C16.3802 31.8219 16.3409 31.7311 16.3015 31.6221C16.3015 31.5859 16.2819 31.5677 16.3015 31.5314C16.3015 31.5132 16.3212 31.4952 16.3408 31.477C16.3999 31.3861 16.3212 31.241 16.3802 31.1501C16.4195 31.0957 16.4982 31.0776 16.5572 31.0957C16.6555 31.1139 16.7736 31.1683 16.8129 31.241C16.8917 31.3499 16.8917 31.477 16.872 31.5859C16.8522 31.713 16.8327 31.8219 16.8524 31.949C16.8524 32.0034 16.872 32.0397 16.872 32.0941C16.872 32.1486 16.8522 32.2031 16.8129 32.2212C16.7539 32.2576 16.6949 32.2576 16.6359 32.2394C16.5572 32.2212 16.4589 32.2394 16.4589 32.1487C16.4589 32.0941 16.4589 32.0216 16.4195 31.9308Z" fill="#F9E9DE"/>
<path d="M12.4451 39.667C12.4648 39.6852 12.4648 39.7214 12.4648 39.7396C12.4648 39.7759 12.4648 39.7941 12.4253 39.8122C12.4058 39.8122 12.4056 39.8303 12.386 39.8303C12.3663 39.8485 12.3663 39.8667 12.3663 39.8848C12.386 39.9574 12.4451 40.0301 12.4253 40.1027C12.4058 40.1571 12.3467 40.1934 12.2877 40.2116C12.2286 40.2297 12.1696 40.2116 12.1303 40.1752C12.0909 40.139 12.0713 40.0845 12.0516 40.0301C12.0123 39.8667 12.0516 39.667 11.9729 39.5218C11.9533 39.5036 11.9533 39.4672 11.9533 39.4492C11.9533 39.4128 12.0123 39.3765 12.0516 39.3765C12.1106 39.3583 12.2483 39.3039 12.3073 39.3583C12.3467 39.3947 12.3467 39.4492 12.3663 39.4854C12.4058 39.5581 12.4253 39.6125 12.4451 39.667Z" fill="#F9E9DE"/>
<path d="M13.1477 34.6357C13.2657 34.9079 13.3837 35.1802 13.5215 35.4707C13.5412 35.507 13.5608 35.5615 13.5412 35.5977C13.5018 35.6522 13.4232 35.6341 13.3444 35.6159C12.9904 35.4707 12.7543 35.1802 12.4395 34.9624C12.3018 34.8717 12.1642 34.8172 12.0461 34.7082C12.0265 34.6901 12.0068 34.6719 12.0068 34.6357C11.9871 34.5812 12.0658 34.5268 12.1051 34.5086C12.1838 34.4541 12.2822 34.4178 12.3609 34.3633C12.4199 34.327 12.4985 34.2726 12.5379 34.2362C12.5969 34.1637 12.656 34.0548 12.7347 34.0184C12.8133 33.9821 12.833 34.0366 12.892 34.0911C13.01 34.2544 13.0887 34.4541 13.1477 34.6357Z" fill="#F7F7F7"/>
<path d="M13.0725 34.0713C13.0923 34.1075 13.0725 34.1439 13.0725 34.162C13.0923 34.1984 13.1317 34.1984 13.171 34.1984C13.2103 34.1802 13.2497 34.162 13.289 34.162C13.3284 34.162 13.3677 34.1984 13.3677 34.2346C13.3677 34.2528 13.348 34.2528 13.3283 34.2709C13.289 34.3073 13.2693 34.398 13.3283 34.4343C13.3677 34.4524 13.407 34.4524 13.4463 34.4706C13.4857 34.4888 13.525 34.5251 13.5054 34.5613C13.5054 34.5795 13.4857 34.5795 13.466 34.5795C13.4267 34.5977 13.407 34.6703 13.4463 34.7066C13.466 34.7429 13.525 34.7429 13.5644 34.7611C13.6037 34.7792 13.6431 34.7974 13.6431 34.8337C13.6431 34.87 13.6037 34.9063 13.6037 34.9426C13.6037 35.0333 13.7807 35.0334 13.7807 35.106C13.7807 35.1423 13.7217 35.1786 13.7217 35.2149C13.7217 35.2693 13.7807 35.2875 13.8399 35.2875C13.8989 35.2875 13.9579 35.3239 13.9579 35.3601C13.9579 35.3964 13.9185 35.4146 13.8792 35.4328C13.8398 35.4508 13.8005 35.4872 13.8202 35.5235C13.8398 35.5599 13.8792 35.5599 13.8989 35.5779C13.9382 35.6324 13.8595 35.705 13.8595 35.7777C13.8595 35.8684 14.0169 35.8684 14.0562 35.941C14.0955 35.9955 14.0562 36.0863 14.0955 36.1407C14.1152 36.1952 14.1939 36.2134 14.2136 36.2678C14.2136 36.2859 14.2135 36.3041 14.2332 36.3041C14.2529 36.3404 14.2726 36.3586 14.3119 36.3767C14.3512 36.3948 14.3906 36.4494 14.4102 36.4856C14.4102 36.5401 14.3709 36.5945 14.3316 36.5945C14.2922 36.5945 14.2529 36.5583 14.2332 36.5219C14.2135 36.4856 14.2135 36.4494 14.1742 36.413C14.1152 36.3404 13.9972 36.3223 13.9382 36.2496C13.9185 36.2133 13.9185 36.1589 13.8792 36.1044C13.8398 36.0318 13.7217 36.0137 13.7021 35.941C13.6824 35.9048 13.702 35.8503 13.6824 35.7958C13.6627 35.7232 13.5644 35.6688 13.525 35.6143C13.5054 35.5779 13.4857 35.5417 13.466 35.5054C13.4267 35.3783 13.3677 35.2512 13.3283 35.1241C13.3087 35.0879 13.3087 35.0697 13.289 35.0334C13.2693 35.0152 13.2497 34.9789 13.23 34.9608C13.1513 34.87 13.1317 34.7611 13.0923 34.6522C13.053 34.5069 12.9742 34.3799 12.8955 34.2528C12.8562 34.1984 12.7775 34.0895 12.8365 34.0168C12.8758 33.9986 13.053 33.9986 13.0725 34.0713Z" fill="white"/>
<path d="M11.8712 34.7805C11.8712 34.8714 11.9696 34.9258 12.0483 34.9621C12.0679 34.9621 12.0876 34.9803 12.1073 34.9803C12.1663 35.0347 12.1072 35.1436 12.1466 35.1981C12.2056 35.2525 12.3434 35.18 12.4024 35.2163C12.4417 35.2525 12.4417 35.307 12.4417 35.3434C12.4417 35.3978 12.4614 35.4523 12.5007 35.4704C12.5794 35.4885 12.6581 35.3614 12.7368 35.416C12.7761 35.4341 12.7761 35.4885 12.7958 35.543C12.8155 35.5974 12.8548 35.652 12.8941 35.652C12.9531 35.652 13.0121 35.5974 13.0711 35.5974C13.1106 35.5974 13.1499 35.652 13.1696 35.6701C13.1893 35.7064 13.2286 35.7427 13.2679 35.7245C13.2876 35.7245 13.2876 35.7245 13.3073 35.7245C13.3269 35.7245 13.327 35.7427 13.3466 35.7427C13.386 35.779 13.4056 35.8334 13.445 35.8698C13.4843 35.8334 13.5433 35.8334 13.563 35.8698C13.5826 35.888 13.5826 35.906 13.6023 35.9242C13.622 35.9424 13.6613 35.9242 13.681 35.906C13.7006 35.888 13.7008 35.8516 13.7008 35.8334C13.7008 35.7609 13.681 35.6701 13.6023 35.6156C13.5433 35.5793 13.4843 35.5612 13.4253 35.543C13.3073 35.5067 13.2089 35.4341 13.1302 35.3614C12.8941 35.18 12.6384 35.0165 12.3827 34.8532C12.2646 34.7805 12.1466 34.6898 12.0286 34.6354C11.9696 34.6172 11.8516 34.6898 11.8712 34.7805Z" fill="white"/>
<path d="M10.9451 33.3064C10.8861 33.4335 10.8664 33.5787 10.9057 33.7058C10.9648 33.8691 11.1418 33.9962 11.3189 34.0689C11.4959 34.1415 11.6926 34.196 11.85 34.3049C11.9287 34.3593 11.9877 34.4138 12.0468 34.4682C12.1451 34.5771 12.2435 34.686 12.2631 34.8131C12.3025 34.9402 12.2632 35.1036 12.1648 35.1944C12.0468 35.2851 11.8696 35.2851 11.7713 35.1762C11.7123 35.1217 11.6927 35.0309 11.614 35.0128C11.5156 34.9765 11.3976 35.0854 11.3189 35.0309C11.2402 34.9765 11.3189 34.8494 11.2795 34.7587C11.2205 34.6316 11.0041 34.7042 10.9057 34.6135C10.827 34.5227 10.8664 34.3774 10.7681 34.3049C10.7287 34.2685 10.65 34.2685 10.591 34.2685C10.532 34.2504 10.473 34.2322 10.473 34.1778C10.473 34.1596 10.473 34.1414 10.473 34.1233C10.473 34.0689 10.4336 34.0325 10.3943 33.978C10.2173 33.7784 10.1386 33.5243 10.1386 33.2701C10.1386 33.1794 10.1582 33.0705 10.1779 32.9796C10.1976 32.8707 10.2369 32.7618 10.2763 32.671C10.3746 32.4895 10.5124 32.3443 10.7091 32.2536C10.7878 32.2172 10.8664 32.1809 10.9451 32.1809C11.1812 32.1628 11.4369 32.3987 11.4369 32.6165C11.4172 32.8889 11.0828 33.016 10.9451 33.3064Z" fill="#C6B697"/>
<path d="M7.81656 34.9806C7.77722 34.8717 7.73784 34.7446 7.71816 34.6175C7.65916 34.2001 7.87553 33.4739 8.44602 33.4739C8.58372 33.4739 8.70178 33.5102 8.83948 33.5466C8.97719 33.5828 9.09523 33.6373 9.21325 33.7099C9.42964 33.837 9.62635 34.0184 9.74437 34.2363C9.84274 34.436 9.86242 34.6901 9.8821 34.908C9.90177 35.1985 9.90177 35.5252 9.70505 35.743C9.44932 36.0516 8.91818 36.0879 8.54441 35.8883C8.17065 35.7249 7.9346 35.3619 7.81656 34.9806Z" fill="#E2CBB7"/>
<path d="M8.56669 33.8925C8.74373 33.9834 8.94047 34.0196 9.13719 34.0559C9.29457 34.0741 9.45194 34.1105 9.56998 34.2012C9.66833 34.2738 9.70767 34.4009 9.80603 34.4734C9.88472 34.4372 9.90443 34.3463 9.90443 34.2556C9.90443 34.1285 9.90443 34.0014 9.84541 33.8745C9.80607 33.7836 9.74702 33.711 9.688 33.6385C9.56997 33.4932 9.45195 33.3479 9.27491 33.2572C9.09787 33.1665 8.88143 33.1301 8.68471 33.1665C8.52734 33.2028 8.25193 33.3298 8.19292 33.4932C8.1339 33.6565 8.40932 33.8199 8.56669 33.8925Z" fill="#534741"/>
<path d="M7.31402 37.3395C7.31402 37.1942 7.35334 37.0491 7.35334 36.922C7.39268 36.5226 7.27463 36.1414 7.21563 35.7602C7.19595 35.5968 7.196 35.4152 7.27469 35.27C7.33371 35.1792 7.47136 35.0885 7.58939 35.0885C7.56973 35.0521 7.55005 35.0341 7.53038 34.9977C7.33366 34.7072 7.19597 34.3442 7.29433 33.9993C7.37301 33.6544 7.70743 33.3639 8.0812 33.3639C8.33693 33.3639 8.63205 33.5999 8.43533 33.8359C8.37631 33.9085 8.25828 33.963 8.17959 34.0356C8.06156 34.1445 7.98286 34.2897 7.92384 34.4168C7.82549 34.6528 7.86481 34.9252 8.02218 35.1248C7.98283 35.1067 7.9435 35.0885 7.90415 35.0522C7.86481 35.1248 7.96318 35.2156 8.04188 35.27C8.17957 35.3971 8.25829 35.5605 8.31731 35.742C8.14026 35.5968 7.9632 35.4516 7.80581 35.3063C7.80581 35.4334 7.76648 35.5968 7.74681 35.6876C7.70746 36.1958 7.94355 36.6678 8.25829 37.0853C8.35665 37.2124 8.45498 37.3213 8.47466 37.4847C8.514 37.6844 8.3763 37.884 8.17959 37.9567C7.98287 38.0293 7.74681 37.993 7.56976 37.866C7.41239 37.7389 7.33369 37.5391 7.31402 37.3395Z" fill="#534741"/>
<path d="M5.22384 38.7191C5.0468 38.7009 4.85008 38.6283 4.67302 38.5012C4.33861 38.2471 4.02383 37.9567 3.84678 37.5936C3.65006 37.1761 3.65007 36.5407 4.10252 36.2502C4.61399 35.9053 5.20416 36.4317 5.57792 36.7948C5.873 37.0852 6.08936 37.4483 6.10904 37.8477C6.08936 38.4287 5.69596 38.7554 5.22384 38.7191Z" fill="#B79A7D"/>
<path d="M4.6762 36.4549C4.6762 36.5093 4.63682 36.582 4.57782 36.6002C4.5188 36.6182 4.44012 36.582 4.40077 36.5275C4.42044 36.6909 4.22375 36.8361 4.06638 36.7816C4.10573 36.7453 4.12538 36.8361 4.1057 36.8724C4.04668 36.945 3.94832 37.0177 3.84996 37.0177C3.92865 37.0177 3.94836 37.1266 3.94836 37.1991C3.94836 37.2537 3.92866 37.3081 3.92866 37.3626C4.0467 37.417 4.027 37.6166 3.90897 37.6348C4.00733 37.6166 4.10568 37.7075 4.08602 37.7982C4.1647 37.8164 4.24344 37.8708 4.32213 37.9253C4.28278 37.9617 4.30243 38.0342 4.36145 38.0342C4.34178 38.0706 4.30244 38.1068 4.24342 38.125C4.2631 38.1068 4.28272 38.1613 4.26305 38.1795C4.24338 38.1976 4.20408 38.1795 4.18441 38.1795C4.10573 38.1431 4.04667 38.0706 4.027 37.9979C3.92864 38.0161 3.84996 37.9253 3.79095 37.8526C3.7516 37.8164 3.73195 37.7801 3.69261 37.7437C3.65326 37.7075 3.63358 37.6711 3.6139 37.6348C3.6139 37.5986 3.63358 37.5441 3.67292 37.5259C3.57456 37.5622 3.43688 37.4715 3.45656 37.3807C3.29917 37.417 3.14177 37.2173 3.24013 37.0902C3.14177 37.0358 3.10243 36.9269 3.12211 36.8361C3.14178 36.7453 3.24013 36.6546 3.35816 36.6546C3.35816 36.6727 3.31882 36.6909 3.29915 36.6727C3.27948 36.6546 3.27945 36.6364 3.27945 36.6002C3.29913 36.4367 3.43686 36.2915 3.6139 36.2733C3.6139 36.1282 3.77126 36.0011 3.90897 36.0011C3.8893 36.0192 3.85 36.0373 3.83033 36.0192C3.85 35.9284 3.90899 35.8195 3.98768 35.7832C4.08604 35.7287 4.22375 35.7651 4.24342 35.8558C4.34178 35.7106 4.61715 35.7287 4.69584 35.8922C4.77452 35.8377 4.89257 35.8014 5.01059 35.8195C5.10896 35.8376 5.20735 35.9466 5.168 36.0555C5.26637 36.0011 5.4237 36.0011 5.50239 36.0918C5.58108 36.1826 5.60077 36.3096 5.52209 36.4004C5.64011 36.4004 5.77785 36.4549 5.85654 36.5457C5.85654 36.6002 5.83687 36.6546 5.79752 36.6909C5.83687 36.6909 5.85649 36.7091 5.87617 36.7453C5.83682 36.818 5.81713 36.8906 5.73844 36.9269C5.65976 36.9631 5.54174 36.9087 5.56141 36.8361C5.4237 36.8542 5.28599 36.7635 5.24665 36.6364C5.20731 36.6546 5.18766 36.6546 5.14832 36.6546C5.0893 36.6182 5.01063 36.5457 5.04998 36.4911C5.0303 36.5638 4.93194 36.6182 4.85325 36.6002C4.73521 36.6182 4.6762 36.5456 4.6762 36.4549Z" fill="#333333"/>
<path d="M2.50897 36.4703C2.44997 36.5429 2.54832 36.6336 2.62701 36.6336C2.70569 36.6336 2.78439 36.5611 2.82374 36.4884C2.78439 36.5247 2.80409 36.5792 2.84342 36.5973C2.96146 36.5611 3.05979 36.4703 3.11881 36.3614C3.07946 36.3614 3.07946 36.4158 3.11881 36.434C3.13848 36.4522 3.17779 36.4522 3.21714 36.434C3.3155 36.3977 3.37454 36.3069 3.37454 36.2162C3.29587 36.2343 3.31555 36.3614 3.39424 36.3795C3.47293 36.3977 3.55157 36.3433 3.59091 36.2887C3.61058 36.2706 3.61061 36.2525 3.61061 36.2343C3.57126 36.2525 3.59095 36.3251 3.63029 36.3432C3.66964 36.3614 3.72864 36.3432 3.74832 36.3069C3.76799 36.2706 3.78764 36.2343 3.78764 36.1798C3.78764 36.198 3.80736 36.2343 3.82703 36.2343C3.90571 36.198 3.92538 36.1073 3.88604 36.0346C3.88604 36.0165 3.86633 36.0165 3.84666 36.0165C3.90568 35.9438 3.92534 35.8349 3.90568 35.7442C3.98436 35.7442 4.06308 35.6716 4.06308 35.5989C4.1221 35.5807 4.16144 35.5445 4.18111 35.49C4.22045 35.5082 4.25979 35.49 4.29913 35.4718C4.31881 35.4356 4.33846 35.3992 4.33846 35.3629C4.33846 35.3448 4.3385 35.3267 4.31883 35.3085C4.29916 35.3085 4.27944 35.3267 4.27944 35.3267C4.35813 35.2722 4.39747 35.1633 4.33846 35.0725C4.31878 35.0907 4.29913 35.1088 4.29913 35.1451C4.35815 35.1088 4.35815 35.018 4.29913 34.9818C4.24012 34.9454 4.14176 34.9636 4.12209 35.018C4.14176 34.9636 4.1221 34.9091 4.06308 34.8547C4.04341 34.8547 4.00405 34.8728 3.98438 34.8728C4.02373 34.8183 3.96473 34.7094 3.88604 34.7276C3.80735 34.7276 3.74831 34.8183 3.78764 34.891C3.82699 34.8365 3.768 34.7458 3.68931 34.7458C3.61062 34.7458 3.57126 34.8365 3.61061 34.891C3.57126 34.8547 3.51223 34.8365 3.47289 34.8728C3.43354 34.891 3.41391 34.9636 3.45326 34.9999C3.41391 34.9636 3.35486 34.9272 3.29584 34.9454C3.23684 34.9636 3.23684 35.0543 3.29584 35.0725C3.27617 34.9999 3.15817 34.9818 3.07949 35.0362C3.02047 35.0907 3.00076 35.1632 2.98109 35.2358C2.94174 35.1996 2.88277 35.1996 2.84342 35.2178C2.80409 35.2358 2.78439 35.3085 2.82374 35.3448C2.84341 35.2903 2.78436 35.254 2.72534 35.254C2.66632 35.254 2.64666 35.3267 2.66633 35.3629C2.60732 35.3267 2.52864 35.3448 2.48929 35.3811C2.44994 35.4174 2.43032 35.49 2.46965 35.5445C2.44999 35.5082 2.39097 35.5082 2.35163 35.5263C2.31228 35.5445 2.27291 35.5807 2.25324 35.5989C2.21389 35.6352 2.17452 35.6716 2.17452 35.726C2.17452 35.7805 2.23358 35.8167 2.27292 35.7987C2.21391 35.8349 2.15488 35.8712 2.1352 35.9257C2.1352 35.9802 2.23357 36.0527 2.25324 35.9983C2.17455 36.0346 2.11554 36.1072 2.1352 36.1798C2.15488 36.2525 2.25323 36.3069 2.31225 36.2525C2.25323 36.2887 2.25322 36.3795 2.29256 36.4158C2.37124 36.5066 2.44997 36.5247 2.50897 36.4703Z" fill="#333333"/>
<path d="M5.08678 39.3008C5.04744 39.3189 4.98843 39.3371 4.96876 39.3735C4.89007 39.446 4.90972 39.5549 4.94906 39.6276C5.04743 39.9362 5.12614 40.2266 5.22449 40.5353C5.30318 40.7712 5.38184 41.0072 5.44086 41.2432C5.65725 41.9693 5.89335 42.6954 6.2081 43.4034C6.30645 43.6394 6.42445 43.8573 6.54248 44.0751C6.56215 44.0933 6.56215 44.1296 6.6015 44.1296C6.64084 44.1478 6.68018 44.1296 6.71952 44.1296C7.8605 43.8573 9.02118 43.3672 9.76871 42.5321C9.45397 42.0964 9.11957 41.6608 8.80481 41.225C8.5294 40.8439 8.25398 40.4626 7.93924 40.0995C7.5458 39.6457 7.11301 39.2282 6.64088 38.8289C6.56219 38.7744 6.40483 38.5565 6.2868 38.5747C6.16877 38.5747 6.07037 38.738 5.99168 38.8107C5.71627 39.0467 5.38186 39.1738 5.08678 39.3008Z" fill="#AA4A4D"/>
<path d="M4.84394 39.7177C4.96198 40.6073 5.09969 41.4968 5.21771 42.3863C5.23738 42.477 5.2374 42.5678 5.29642 42.6404C5.37511 42.713 5.47345 42.7493 5.59148 42.7856C6.22099 42.9672 6.87014 43.1305 7.53899 43.0579C7.63734 43.0397 7.75537 43.0216 7.83406 42.9672C7.91274 42.9127 7.97177 42.7856 7.91276 42.6948C7.85375 42.5678 7.67668 42.5678 7.51929 42.5678C7.10619 42.5678 6.69311 42.4952 6.31933 42.3681C6.16196 42.3137 6.02423 42.2592 5.92588 42.1321C5.82751 42.005 5.7882 41.8417 5.76853 41.6783C5.70951 41.1337 5.68984 40.5891 5.6505 40.0626C5.63083 39.8629 5.59147 39.7177 5.39476 39.6269C5.2177 39.518 4.80459 39.4454 4.84394 39.7177Z" fill="#B79A7D"/>
<path d="M4.10081 37.1077C4.15982 37.1259 4.19918 37.1622 4.23853 37.2166C4.2582 37.2529 4.25818 37.3255 4.21883 37.3619C4.33687 37.3619 4.43526 37.4889 4.37625 37.5797C4.4746 37.5979 4.51392 37.7068 4.47458 37.7795C4.55327 37.7975 4.59262 37.9064 4.5336 37.9609C4.59262 37.9609 4.65165 38.0153 4.67132 38.0699C4.67132 38.1243 4.63197 38.1969 4.55328 38.1969C4.59263 38.2151 4.65165 38.2151 4.67132 38.2695C4.69098 38.3059 4.69094 38.3784 4.63193 38.3784C4.73029 38.3966 4.7893 38.4874 4.74996 38.56C4.71062 38.6326 4.59259 38.6508 4.5139 38.5963C4.5139 38.6508 4.45489 38.687 4.39588 38.687C4.33686 38.687 4.27787 38.6508 4.23853 38.6144C4.17951 38.6508 4.1205 38.6689 4.06148 38.6689C4.00248 38.6689 3.92379 38.6144 3.94346 38.56C3.90411 38.5963 3.8254 38.5963 3.78605 38.56C3.72703 38.5419 3.70735 38.4692 3.70735 38.4329C3.62866 38.4511 3.55 38.4329 3.49098 38.3784C3.43196 38.324 3.45161 38.2333 3.53031 38.1969C3.41228 38.2151 3.29428 38.1424 3.25493 38.0335C3.25493 37.9973 3.25491 37.9609 3.29425 37.9791C3.21556 37.9791 3.13686 37.9428 3.09753 37.8702C3.05818 37.8157 3.07789 37.7249 3.13691 37.6704C3.05822 37.6704 2.99918 37.616 2.99918 37.5615C2.99918 37.4889 3.03852 37.4344 3.11721 37.4164C3.07786 37.38 3.05822 37.3437 3.01888 37.3075C2.99921 37.2893 2.99918 37.2711 2.99918 37.2711C2.99918 37.2529 3.01888 37.2529 3.01888 37.2348C3.05822 37.2166 3.11719 37.1804 3.15653 37.1804C3.11719 37.144 3.11723 37.0896 3.13691 37.0533C3.15658 37.0169 3.23521 36.9988 3.27456 37.0169C3.33358 36.8355 3.60898 36.7628 3.76636 36.8536C3.82537 36.7265 3.96311 36.8173 4.0418 36.8717C4.08114 36.908 4.1205 36.9625 4.1205 36.9988C4.15985 36.9988 4.14015 37.1259 4.10081 37.1077Z" fill="#333333"/>
<defs>
<linearGradient id="paint0_linear_111_1673" x1="30.4318" y1="176.3" x2="189.01" y2="176.3" gradientUnits="userSpaceOnUse">
<stop stop-color="#4D4D4D"/>
<stop offset="1"/>
</linearGradient>
<linearGradient id="paint1_linear_111_1673" x1="30.4318" y1="176.3" x2="189.01" y2="176.3" gradientUnits="userSpaceOnUse">
<stop/>
<stop offset="1"/>
</linearGradient>
</defs>
</svg>
